<svg width="55" height="54" viewBox="0 0 55 54" fill="none" xmlns="http://www.w3.org/2000/svg">
<path d="M50.625 10.75C50.1277 10.75 49.6508 10.5525 49.2992 10.2008C48.9475 9.84919 48.75 9.37228 48.75 8.875C48.75 8.37772 48.9475 7.90081 49.2992 7.54917C49.6508 7.19754 50.1277 7 50.625 7C51.1223 7 51.5992 7.19754 51.9508 7.54917C52.3025 7.90081 52.5 8.37772 52.5 8.875C52.5 9.37228 52.3025 9.84919 51.9508 10.2008C51.5992 10.5525 51.1223 10.75 50.625 10.75ZM50.625 10.75V20.125C50.625 21.87 50.625 22.7425 50.41 23.45C50.1716 24.2371 49.7428 24.9532 49.1615 25.5349C48.5802 26.1167 47.8644 26.546 47.0775 26.785C46.3675 27 45.495 27 43.75 27M4.375 43.25C4.87228 43.25 5.34919 43.4475 5.70083 43.7992C6.05246 44.1508 6.25 44.6277 6.25 45.125C6.25 45.6223 6.05246 46.0992 5.70083 46.4508C5.34919 46.8025 4.87228 47 4.375 47C3.87772 47 3.40081 46.8025 3.04917 46.4508C2.69754 46.0992 2.5 45.6223 2.5 45.125C2.5 44.6277 2.69754 44.1508 3.04917 43.7992C3.40081 43.4475 3.87772 43.25 4.375 43.25ZM4.375 43.25V33.875C4.375 32.13 4.375 31.2575 4.59 30.55C4.82837 29.7629 5.2572 29.0468 5.8385 28.4651C6.41979 27.8833 7.1356 27.454 7.9225 27.215C8.6325 27 9.505 27 11.25 27M11.25 3.875C11.25 4.37228 11.0525 4.84919 10.7008 5.20083C10.3492 5.55246 9.87228 5.75 9.375 5.75C8.87772 5.75 8.40081 5.55246 8.04917 5.20083C7.69754 4.84919 7.5 4.37228 7.5 3.875C7.5 3.37772 7.69754 2.90081 8.04917 2.54917C8.40081 2.19754 8.87772 2 9.375 2C9.87228 2 10.3492 2.19754 10.7008 2.54917C11.0525 2.90081 11.25 3.37772 11.25 3.875ZM11.25 3.875H20.625C22.37 3.875 23.2425 3.875 23.95 4.09C24.7371 4.32837 25.4532 4.7572 26.0349 5.3385C26.6167 5.91979 27.046 6.6356 27.285 7.4225C27.5 8.1325 27.5 9.005 27.5 10.75M43.75 50.125C43.75 49.6277 43.9475 49.1508 44.2992 48.7992C44.6508 48.4475 45.1277 48.25 45.625 48.25C46.1223 48.25 46.5992 48.4475 46.9508 48.7992C47.3025 49.1508 47.5 49.6277 47.5 50.125C47.5 50.6223 47.3025 51.0992 46.9508 51.4508C46.5992 51.8025 46.1223 52 45.625 52C45.1277 52 44.6508 51.8025 44.2992 51.4508C43.9475 51.0992 43.75 50.6223 43.75 50.125ZM43.75 50.125H34.375C32.63 50.125 31.7575 50.125 31.05 49.91C30.2629 49.6716 29.5468 49.2428 28.9651 48.6615C28.3833 48.0802 27.954 47.3644 27.715 46.5775C27.5 45.8675 27.5 44.995 27.5 43.25" stroke="#458EF7" stroke-width="3.125" stroke-linecap="round" stroke-linejoin="round"/>
<path d="M11.3721 26.8779C11.3721 19.2179 11.3721 15.3879 13.7521 13.0079C16.1321 10.6279 19.9621 10.6279 27.6221 10.6279C35.2821 10.6279 39.1121 10.6279 41.4921 13.0079C43.8721 15.3879 43.8721 19.2179 43.8721 26.8779C43.8721 34.5379 43.8721 38.3679 41.4921 40.7479C39.1121 43.1279 35.2821 43.1279 27.6221 43.1279C19.9621 43.1279 16.1321 43.1279 13.7521 40.7479C11.3721 38.3679 11.3721 34.5379 11.3721 26.8779Z" stroke="#458EF7" stroke-width="3.125" stroke-linecap="round" stroke-linejoin="round"/>
<path d="M28.7475 33.2504L25.0975 21.9479C24.9709 21.5913 24.7351 21.2836 24.4236 21.0686C24.1122 20.8536 23.7409 20.7423 23.3625 20.7504C22.9845 20.7428 22.6138 20.8544 22.3028 21.0693C21.9918 21.2843 21.7564 21.5917 21.63 21.9479L17.98 33.2504M34.9975 20.7504V33.2504M19.3225 29.5004H27.4025" stroke="#458EF7" stroke-width="3.125" stroke-linecap="round" stroke-linejoin="round"/>
</svg>
