<svg width="40" height="40" viewBox="0 0 40 40" fill="none" xmlns="http://www.w3.org/2000/svg">
<path d="M13.8333 16.3333C15.6014 16.3333 17.2971 15.631 18.5474 14.3807C19.7976 13.1305 20.5 11.4348 20.5 9.66667C20.5 7.89856 19.7976 6.20286 18.5474 4.95262C17.2971 3.70238 15.6014 3 13.8333 3C12.0652 3 10.3695 3.70238 9.11929 4.95262C7.86905 6.20286 7.16667 7.89856 7.16667 9.66667C7.16667 11.4348 7.86905 13.1305 9.11929 14.3807C10.3695 15.631 12.0652 16.3333 13.8333 16.3333ZM28.8333 16.3333C30.1594 16.3333 31.4312 15.8065 32.3689 14.8689C33.3065 13.9312 33.8333 12.6594 33.8333 11.3333C33.8333 10.0073 33.3065 8.73548 32.3689 7.7978C31.4312 6.86012 30.1594 6.33333 28.8333 6.33333C27.5072 6.33333 26.2355 6.86012 25.2978 7.7978C24.3601 8.73548 23.8333 10.0073 23.8333 11.3333C23.8333 12.6594 24.3601 13.9312 25.2978 14.8689C26.2355 15.8065 27.5072 16.3333 28.8333 16.3333ZM6.125 18.8333C5.2962 18.8333 4.50134 19.1626 3.91529 19.7486C3.32924 20.3347 3 21.1295 3 21.9583V23C3 23 3 30.5 13.8333 30.5C24.6667 30.5 24.6667 23 24.6667 23V21.9583C24.6667 21.1295 24.3374 20.3347 23.7514 19.7486C23.1653 19.1626 22.3705 18.8333 21.5417 18.8333H6.125ZM24.395 28.0742C25.5417 28.5392 26.9942 28.8333 28.8325 28.8333C37.5825 28.8333 37.5825 22.1667 37.5825 22.1667V21.9583C37.5825 21.1297 37.2534 20.3349 36.6675 19.7489C36.0816 19.1629 35.287 18.8336 34.4583 18.8333H25.1725C25.9217 19.702 26.3332 20.8112 26.3317 21.9583V23.0375L26.3308 23.085L26.3258 23.21C26.3214 23.3061 26.3117 23.4256 26.2967 23.5683C26.2549 23.9405 26.1881 24.3094 26.0967 24.6725C25.7807 25.9156 25.2003 27.0759 24.395 28.0742Z" fill="#458EF7"/>
</svg>
