<svg width="40" height="40" viewBox="0 0 40 40" fill="none" xmlns="http://www.w3.org/2000/svg">
<path d="M15.4457 17.5322H6.49142C5.73366 17.5322 5.00693 17.8332 4.47112 18.3691C3.9353 18.9049 3.63428 19.6316 3.63428 20.3894V29.3265M3.63428 29.3265H34.7971M3.63428 29.3265V38.0008M34.7971 29.3265V20.3894C34.7971 19.6316 34.4961 18.9049 33.9603 18.3691C33.4245 17.8332 32.6978 17.5322 31.94 17.5322H22.9914M34.7971 29.3265V38.0008" stroke="#D9D9D9" stroke-width="2.85714" stroke-linecap="round" stroke-linejoin="round"/>
<path d="M13.9143 23.4289H24.5143M26.6857 13.8375L20.2286 20.3003C19.9607 20.5681 19.5974 20.7186 19.2186 20.7186C18.8398 20.7186 18.4765 20.5681 18.2086 20.3003L9.62286 11.7146C9.35504 11.4467 9.20459 11.0834 9.20459 10.7046C9.20459 10.3258 9.35504 9.9625 9.62286 9.6946L16.0857 3.23174C16.3536 2.96393 16.7169 2.81348 17.0957 2.81348C17.4745 2.81348 17.8378 2.96393 18.1057 3.23174L26.6857 11.8175C26.9535 12.0854 27.104 12.4487 27.104 12.8275C27.104 13.2063 26.9535 13.5696 26.6857 13.8375Z" stroke="#D9D9D9" stroke-width="2.85714" stroke-linecap="round" stroke-linejoin="round"/>
</svg>
