<svg width="104" height="63" viewBox="0 0 104 63" fill="none" xmlns="http://www.w3.org/2000/svg">
<path d="M49.8 29.075H51.4C54.75 29.075 56.95 29 59.475 28.475L59.75 31.125C57.125 31.65 54.85 31.725 51.4 31.725H49.8V29.075ZM49.8 20.9H58.85V23.55H53.075V30.55H49.8V20.9ZM65.575 19.075H68.725V34.3H65.575V19.075ZM62.775 24.625H66.45V27.325H62.775V24.625ZM60.625 19.475H63.725V32.225H60.625V19.475ZM59.1 33.175H61.925V33.825C61.925 37.9 58.725 41.25 53.05 42.15L51.725 39.575C56.725 38.9 59.1 36.275 59.1 33.825V33.175ZM59.575 33.175H62.4V33.825C62.4 36.275 64.775 38.9 69.775 39.575L68.45 42.15C62.775 41.25 59.575 37.9 59.575 33.825V33.175ZM74.573 20H89.248V22.625H74.573V20ZM72.023 27.225H92.973V29.85H72.023V27.225ZM87.248 20H90.523V21.575C90.523 23.225 90.523 25.325 89.923 28L86.648 27.7C87.248 25.075 87.248 23.2 87.248 21.575V20ZM74.348 31.425H90.448V37.95H77.698V40.3H74.373V35.5H87.148V34H74.348V31.425ZM74.373 39.5H91.048V42.075H74.373V39.5Z" fill="black"/>
<path d="M33 14H6.33333C4.495 14 3 15.495 3 17.3333V47.3333L9.66667 40.6667H33C34.8383 40.6667 36.3333 39.1717 36.3333 37.3333V17.3333C36.3333 15.495 34.8383 14 33 14Z" fill="#458EF7"/>
</svg>
