<svg width="20" height="21" viewBox="0 0 20 21" fill="none" xmlns="http://www.w3.org/2000/svg">
<path d="M16.2498 12.4492C16.2498 16.2617 13.0935 19.3273 9.28102 19.0998C5.3629 18.866 2.68102 15.0979 3.18602 11.1592C3.49165 8.76353 4.61478 6.70916 5.83728 5.11541C6.04978 4.83728 6.2679 7.07541 6.48603 6.82916C6.70478 6.57603 8.73228 3.06728 9.43727 1.83478C9.46759 1.78042 9.50926 1.73322 9.55944 1.69639C9.60962 1.65955 9.66714 1.63396 9.72809 1.62133C9.78904 1.6087 9.852 1.60933 9.91268 1.6232C9.97336 1.63706 10.0304 1.66382 10.0798 1.70166C11.496 2.77041 16.2498 6.78478 16.2498 12.4492Z" fill="#FF6723"/>
<path d="M14.3747 14.0182C14.3747 16.5445 12.1754 18.5751 9.50036 18.4832C6.61286 18.3857 4.63286 15.7432 5.05661 13.0213C5.66848 9.11883 9.67473 6.61133 9.67473 6.61133C9.67473 6.61133 14.3747 9.5532 14.3747 14.0182Z" fill="#FFB02E"/>
</svg>
