<svg width="51" height="50" viewBox="0 0 51 50" fill="none" xmlns="http://www.w3.org/2000/svg">
<path d="M22.375 39.5832C21.5069 39.5832 20.7694 39.5401 20.1625 39.454C19.5556 39.3679 19.2514 39.0637 19.25 38.5415C19.25 37.9512 19.5542 37.4568 20.1625 37.0582C20.7708 36.6596 21.5083 36.4596 22.375 36.4582C23.2417 36.4568 23.9799 36.6568 24.5896 37.0582C25.1993 37.4596 25.5028 37.954 25.5 38.5415C25.5 39.0623 25.1965 39.3665 24.5896 39.454C23.9826 39.5415 23.2444 39.5846 22.375 39.5832ZM39.0417 43.7498C38.1736 43.7498 37.4361 43.7068 36.8292 43.6207C36.2222 43.5346 35.9181 43.2304 35.9167 42.7082C35.9167 42.1179 36.2208 41.6234 36.8292 41.2248C37.4375 40.8262 38.175 40.6262 39.0417 40.6248C39.9083 40.6234 40.6465 40.8234 41.2562 41.2248C41.866 41.6262 42.1694 42.1207 42.1667 42.7082C42.1667 43.229 41.8632 43.5332 41.2562 43.6207C40.6493 43.7082 39.9111 43.7512 39.0417 43.7498ZM28.625 43.7498C27.7569 43.7498 27.0194 43.7068 26.4125 43.6207C25.8056 43.5346 25.5014 43.2304 25.5 42.7082C25.5 42.1179 25.8042 41.6234 26.4125 41.2248C27.0208 40.8262 27.7583 40.6262 28.625 40.6248C29.4917 40.6234 30.2299 40.8234 30.8396 41.2248C31.4493 41.6262 31.7528 42.1207 31.75 42.7082C31.75 43.229 31.4465 43.5332 30.8396 43.6207C30.2326 43.7082 29.4944 43.7512 28.625 43.7498ZM11.9583 43.7498C11.0903 43.7498 10.3528 43.7068 9.74583 43.6207C9.13889 43.5346 8.83472 43.2304 8.83333 42.7082C8.83333 42.1179 9.1375 41.6234 9.74583 41.2248C10.3542 40.8262 11.0917 40.6262 11.9583 40.6248C12.825 40.6234 13.5632 40.8234 14.1729 41.2248C14.7826 41.6262 15.0861 42.1207 15.0833 42.7082C15.0833 43.229 14.7799 43.5332 14.1729 43.6207C13.566 43.7082 12.8278 43.7512 11.9583 43.7498ZM20.2917 45.8332C19.4236 45.8332 18.6861 45.7901 18.0792 45.704C17.4722 45.6179 17.1681 45.3137 17.1667 44.7915C17.1667 44.2012 17.4708 43.7068 18.0792 43.3082C18.6875 42.9096 19.425 42.7096 20.2917 42.7082C21.1583 42.7068 21.8965 42.9068 22.5062 43.3082C23.116 43.7096 23.4194 44.204 23.4167 44.7915C23.4167 45.3123 23.1132 45.6165 22.5062 45.704C21.8993 45.7915 21.1611 45.8346 20.2917 45.8332ZM13 33.3332V34.3748C13 35.2429 12.6965 35.9811 12.0896 36.5894C11.4826 37.1978 10.7444 37.5012 9.875 37.4998C9.00556 37.4984 8.26806 37.195 7.6625 36.5894C7.05694 35.9839 6.75278 35.2457 6.75 34.3748V19.7915C6.75 19.4443 6.78472 19.1054 6.85417 18.7748C6.92361 18.4443 7.01042 18.1061 7.11458 17.7603L11.125 6.24984C11.3333 5.62484 11.7069 5.12137 12.2458 4.73942C12.7847 4.35748 13.3833 4.1665 14.0417 4.1665H36.9583C37.6181 4.1665 38.2174 4.35748 38.7563 4.73942C39.2951 5.12137 39.6681 5.62484 39.875 6.24984L43.8854 17.7603C43.9896 18.1075 44.0764 18.4464 44.1458 18.7769C44.2153 19.1075 44.25 19.4457 44.25 19.7915V34.3748C44.25 35.2429 43.9465 35.9811 43.3396 36.5894C42.7326 37.1978 41.9944 37.5012 41.125 37.4998C40.2556 37.4984 39.5181 37.195 38.9125 36.5894C38.3069 35.9839 38.0028 35.2457 38 34.3748V33.3332H13ZM12.5833 14.5832H38.4167L36.2292 8.33317H14.7708L12.5833 14.5832ZM16.125 27.0832C16.9931 27.0832 17.7312 26.7797 18.3396 26.1728C18.9479 25.5658 19.2514 24.8276 19.25 23.9582C19.2486 23.0887 18.9451 22.3512 18.3396 21.7457C17.734 21.1401 16.9958 20.8359 16.125 20.8332C15.2542 20.8304 14.5167 21.1346 13.9125 21.7457C13.3083 22.3568 13.0042 23.0943 13 23.9582C12.9958 24.8221 13.3 25.5603 13.9125 26.1728C14.525 26.7853 15.2625 27.0887 16.125 27.0832ZM34.875 27.0832C35.7431 27.0832 36.4812 26.7797 37.0896 26.1728C37.6979 25.5658 38.0014 24.8276 38 23.9582C37.9986 23.0887 37.6951 22.3512 37.0896 21.7457C36.484 21.1401 35.7458 20.8359 34.875 20.8332C34.0042 20.8304 33.2667 21.1346 32.6625 21.7457C32.0583 22.3568 31.7542 23.0943 31.75 23.9582C31.7458 24.8221 32.05 25.5603 32.6625 26.1728C33.275 26.7853 34.0125 27.0887 34.875 27.0832Z" fill="#458EF7"/>
</svg>
