<svg width="52" height="52" viewBox="0 0 52 52" fill="none" xmlns="http://www.w3.org/2000/svg">
<path d="M48.8729 46.6136V49.1366C48.8714 49.4442 48.8085 49.7485 48.6878 50.032C48.567 50.3155 48.3908 50.5728 48.1691 50.789C47.9475 51.0051 47.6848 51.176 47.3962 51.2918C47.1075 51.4075 46.7986 51.4659 46.487 51.4636H3.38584C3.07429 51.4659 2.76534 51.4075 2.47669 51.2918C2.18804 51.176 1.92538 51.0051 1.70374 50.789C1.4821 50.5728 1.30585 50.3155 1.18509 50.032C1.06433 49.7485 1.00143 49.4442 1 49.1366V21.9637C1 20.6746 2.06357 19.6367 3.38584 19.6367H21.7608M48.8729 33.5759V37.5258ZM48.8729 24.4867H50.2143C50.6496 24.4867 51 24.8326 51 25.2624V32.8002C51.0002 32.9021 50.98 33.003 50.9406 33.0972C50.9011 33.1914 50.8433 33.277 50.7703 33.3491C50.6973 33.4211 50.6106 33.4783 50.5152 33.5172C50.4198 33.5561 50.3175 33.576 50.2143 33.5759H48.8729" fill="white"/>
<path d="M48.8729 46.6136V49.1366C48.8714 49.4442 48.8085 49.7485 48.6878 50.032C48.567 50.3155 48.3908 50.5728 48.1691 50.789C47.9475 51.0051 47.6848 51.176 47.3962 51.2918C47.1075 51.4075 46.7986 51.4659 46.487 51.4636H3.38584C3.07429 51.4659 2.76534 51.4075 2.47669 51.2918C2.18804 51.176 1.92538 51.0051 1.70374 50.789C1.4821 50.5728 1.30585 50.3155 1.18509 50.032C1.06433 49.7485 1.00143 49.4442 1 49.1366V21.9637C1 20.6746 2.06357 19.6367 3.38584 19.6367H21.7608M48.8729 37.5258V33.5759H50.2143C50.3175 33.576 50.4198 33.5561 50.5152 33.5172C50.6106 33.4783 50.6973 33.4211 50.7703 33.3491C50.8433 33.277 50.9011 33.1914 50.9406 33.0972C50.98 33.003 51.0002 32.9021 51 32.8002V25.2624C51 24.8326 50.6496 24.4867 50.2143 24.4867H48.8729" stroke="black" stroke-width="1.04167" stroke-linecap="round" stroke-linejoin="round"/>
<path d="M27.9437 19.6381H46.487C46.7985 19.6358 47.1075 19.6942 47.3961 19.81C47.6848 19.9258 47.9475 20.0966 48.1691 20.3128C48.3907 20.529 48.567 20.7862 48.6877 21.0698C48.8085 21.3533 48.8714 21.6576 48.8728 21.9652V24.4868M21.5787 10.5233H15.3451C14.9318 10.5246 14.5222 10.4451 14.1401 10.2894C13.758 10.1338 13.4108 9.90509 13.1186 9.61646C12.8263 9.32783 12.5948 8.98499 12.4373 8.60767C12.2799 8.23035 12.1995 7.82601 12.201 7.41791V4.56792C12.1997 4.15995 12.2802 3.75575 12.4377 3.37858C12.5953 3.00142 12.8268 2.65874 13.1191 2.37025C13.4113 2.08176 13.7584 1.85317 14.1404 1.69762C14.5225 1.54207 14.9319 1.46263 15.3451 1.46388H34.3579C34.7712 1.46263 35.1806 1.54207 35.5627 1.69762C35.9447 1.85317 36.2918 2.08176 36.584 2.37025C36.8762 2.65874 37.1078 3.00142 37.2653 3.37858C37.4229 3.75575 37.5034 4.15995 37.5021 4.56792V7.41926C37.5034 7.82724 37.4229 8.23144 37.2653 8.60861C37.1078 8.98577 36.8762 9.32845 36.584 9.61694C36.2918 9.90543 35.9447 10.134 35.5627 10.2896C35.1806 10.4451 34.7712 10.5246 34.3579 10.5233H28.1244M48.8728 37.5246H50.2143C50.6496 37.5246 51 37.8705 51 38.3002V45.838C51.0001 45.94 50.9799 46.0409 50.9405 46.1351C50.9011 46.2293 50.8432 46.3149 50.7702 46.3869C50.6972 46.459 50.6106 46.5161 50.5152 46.555C50.4198 46.594 50.3175 46.6139 50.2143 46.6137H48.8728M7.40191 24.0449H42.4709C42.9062 24.0449 43.2566 24.3908 43.2566 24.8219V46.2799C43.2568 46.3818 43.2366 46.4828 43.1972 46.577C43.1577 46.6712 43.0999 46.7567 43.0269 46.8288C42.9539 46.9009 42.8672 46.958 42.7718 46.9969C42.6764 47.0358 42.5741 47.0558 42.4709 47.0556H7.40191C7.29868 47.0558 7.19643 47.0358 7.10102 46.9969C7.00562 46.958 6.91893 46.9009 6.84594 46.8288C6.77294 46.7567 6.71507 46.6712 6.67565 46.577C6.63623 46.4828 6.61603 46.3818 6.61621 46.2799V24.8206C6.61621 24.3908 6.96663 24.0449 7.40191 24.0449Z" stroke="black" stroke-width="1.04167" stroke-linecap="round" stroke-linejoin="round"/>
<path d="M21.758 19.639C21.6403 19.312 21.581 18.9652 21.5801 18.5985V7.67828C21.5788 7.27041 21.6592 6.86632 21.8167 6.48925C21.9742 6.11217 22.2056 5.76955 22.4977 5.48108C22.7898 5.19261 23.1367 4.96399 23.5186 4.80836C23.9005 4.65273 24.3097 4.57316 24.7229 4.57423H24.9802C25.3935 4.57298 25.8029 4.65242 26.1849 4.80797C26.567 4.96352 26.9141 5.19211 27.2063 5.4806C27.4985 5.76909 27.7301 6.11177 27.8876 6.48893C28.0452 6.8661 28.1257 7.2703 28.1244 7.67828V18.5985C28.1226 18.9652 28.0628 19.312 27.9451 19.639M21.7608 19.6377H27.9423Z" fill="white"/>
<path d="M21.758 19.639C21.6403 19.312 21.581 18.9652 21.5801 18.5985V7.67828C21.5788 7.27041 21.6592 6.86632 21.8167 6.48925C21.9742 6.11217 22.2056 5.76955 22.4977 5.48108C22.7898 5.19261 23.1367 4.96399 23.5186 4.80836C23.9005 4.65273 24.3097 4.57316 24.7229 4.57423H24.9802C25.3935 4.57298 25.8029 4.65242 26.1849 4.80797C26.567 4.96352 26.9141 5.19211 27.2063 5.4806C27.4985 5.76909 27.7301 6.11177 27.8876 6.48893C28.0452 6.8661 28.1257 7.2703 28.1244 7.67828V18.5985C28.1226 18.9652 28.0628 19.312 27.9451 19.639M21.7608 19.6377H27.9423" stroke="black" stroke-width="1.04167" stroke-linecap="round" stroke-linejoin="round"/>
<path d="M40.3725 34.8154H36.6908L31.133 29.3286C30.9431 29.1395 30.7169 28.9896 30.4678 28.8876C30.2186 28.7856 29.9514 28.7335 29.6817 28.7344H15.2565C14.9193 28.735 14.5874 28.8176 14.2901 28.9749C13.9929 29.1323 13.7395 29.3594 13.5523 29.6364L9.74618 35.2665C9.63434 35.4333 9.57455 35.6289 9.57422 35.829V41.91C9.57422 42.4476 9.79054 42.9632 10.1756 43.3433C10.5606 43.7235 11.0829 43.937 11.6274 43.937H13.809C14.0351 44.8091 14.5489 45.582 15.2691 46.134C15.9894 46.6859 16.8753 46.9855 17.7871 46.9855C18.6989 46.9855 19.5848 46.6859 20.3051 46.134C21.0253 45.582 21.539 44.8091 21.7652 43.937H30.2347C30.4609 44.8091 30.9746 45.582 31.6949 46.134C32.4152 46.6859 33.301 46.9855 34.2129 46.9855C35.1247 46.9855 36.0105 46.6859 36.7308 46.134C37.4511 45.582 37.9648 44.8091 38.191 43.937H40.3725C40.9171 43.937 41.4393 43.7235 41.8244 43.3433C42.2094 42.9632 42.4257 42.4476 42.4257 41.91V36.8425C42.4257 36.3049 42.2094 35.7893 41.8244 35.4091C41.4393 35.029 40.9171 34.8154 40.3725 34.8154ZM15.2565 30.7614H29.6817L33.7881 34.8154H12.5257L15.2565 30.7614ZM17.7871 44.9505C17.381 44.9505 16.984 44.8317 16.6464 44.6089C16.3087 44.3862 16.0456 44.0696 15.8902 43.6992C15.7348 43.3288 15.6941 42.9213 15.7733 42.5281C15.8526 42.1349 16.0481 41.7737 16.3353 41.4902C16.6224 41.2067 16.9882 41.0137 17.3865 40.9355C17.7848 40.8572 18.1977 40.8974 18.5728 41.0508C18.948 41.2042 19.2687 41.464 19.4943 41.7974C19.7199 42.1307 19.8403 42.5226 19.8403 42.9235C19.8403 43.4611 19.624 43.9767 19.2389 44.3568C18.8539 44.737 18.3316 44.9505 17.7871 44.9505ZM34.2129 44.9505C33.8068 44.9505 33.4098 44.8317 33.0721 44.6089C32.7345 44.3862 32.4713 44.0696 32.3159 43.6992C32.1605 43.3288 32.1199 42.9213 32.1991 42.5281C32.2783 42.1349 32.4739 41.7737 32.761 41.4902C33.0482 41.2067 33.414 41.0137 33.8123 40.9355C34.2106 40.8572 34.6234 40.8974 34.9986 41.0508C35.3738 41.2042 35.6944 41.464 35.92 41.7974C36.1457 42.1307 36.2661 42.5226 36.2661 42.9235C36.2661 43.4611 36.0497 43.9767 35.6647 44.3568C35.2796 44.737 34.7574 44.9505 34.2129 44.9505Z" fill="#458EF7"/>
</svg>
