<svg width="261" height="59" viewBox="0 0 261 59" fill="none" xmlns="http://www.w3.org/2000/svg">
<path d="M77.4844 38.5225L82.582 22.3311H84.2227L83.2461 26.6865L77.9141 43.4639H76.2734L77.4844 38.5225ZM72.1914 22.3311L76.6641 38.6201L77.6211 43.4639H75.9219L69.7891 22.3311H72.1914ZM90.5703 38.5615L94.9258 22.3311H97.3281L91.1953 43.4639H89.5156L90.5703 38.5615ZM84.5547 22.3311L89.5742 38.3857L90.8438 43.4639H89.2031L83.7539 26.667L82.8359 22.3311H84.5547ZM104.145 13.4639V43.4639H101.82V13.4639H104.145ZM103.617 31.5889L102.582 31.0029C102.66 29.7529 102.914 28.5811 103.344 27.4873C103.773 26.3936 104.353 25.43 105.082 24.5967C105.824 23.7633 106.69 23.1123 107.68 22.6436C108.682 22.1748 109.789 21.9404 111 21.9404C112.055 21.9404 112.999 22.0837 113.832 22.3701C114.665 22.6566 115.375 23.1123 115.961 23.7373C116.547 24.3623 116.99 25.1631 117.289 26.1396C117.602 27.1162 117.758 28.3076 117.758 29.7139V43.4639H115.414V29.6943C115.414 28.236 115.212 27.0967 114.809 26.2764C114.405 25.443 113.832 24.8506 113.09 24.499C112.348 24.1475 111.469 23.9717 110.453 23.9717C109.333 23.9717 108.35 24.2191 107.504 24.7139C106.671 25.1956 105.967 25.8271 105.395 26.6084C104.835 27.3766 104.405 28.2035 104.105 29.0889C103.806 29.9613 103.643 30.7946 103.617 31.5889ZM126.371 22.3311V43.4639H124.047V22.3311H126.371ZM123.637 16.2178C123.637 15.7751 123.773 15.404 124.047 15.1045C124.333 14.792 124.724 14.6357 125.219 14.6357C125.714 14.6357 126.104 14.792 126.391 15.1045C126.69 15.404 126.84 15.7751 126.84 16.2178C126.84 16.6475 126.69 17.0186 126.391 17.3311C126.104 17.6305 125.714 17.7803 125.219 17.7803C124.724 17.7803 124.333 17.6305 124.047 17.3311C123.773 17.0186 123.637 16.6475 123.637 16.2178ZM140.746 22.3311V24.2451H130.16V22.3311H140.746ZM134.047 16.9014H136.371V38.3271C136.371 39.3037 136.501 40.0394 136.762 40.5342C137.022 41.029 137.361 41.361 137.777 41.5303C138.194 41.6995 138.643 41.7842 139.125 41.7842C139.477 41.7842 139.815 41.7646 140.141 41.7256C140.466 41.6735 140.759 41.6214 141.02 41.5693L141.117 43.542C140.831 43.6331 140.46 43.7048 140.004 43.7568C139.548 43.8219 139.092 43.8545 138.637 43.8545C137.738 43.8545 136.944 43.6917 136.254 43.3662C135.564 43.0277 135.023 42.4548 134.633 41.6475C134.242 40.8271 134.047 39.7139 134.047 38.3076V16.9014ZM153.812 43.8545C152.432 43.8545 151.163 43.6006 150.004 43.0928C148.858 42.585 147.855 41.8688 146.996 40.9443C146.15 40.0199 145.492 38.9261 145.023 37.6631C144.568 36.387 144.34 34.9938 144.34 33.4834V32.6436C144.34 31.016 144.581 29.5446 145.062 28.2295C145.544 26.9144 146.208 25.7881 147.055 24.8506C147.901 23.9131 148.865 23.1969 149.945 22.7021C151.039 22.1943 152.185 21.9404 153.383 21.9404C154.724 21.9404 155.915 22.1813 156.957 22.6631C157.999 23.1318 158.871 23.8024 159.574 24.6748C160.29 25.5342 160.831 26.5563 161.195 27.7412C161.56 28.9131 161.742 30.2087 161.742 31.6279V33.0537H145.746V31.0615H159.418V30.7881C159.392 29.6032 159.151 28.4964 158.695 27.4678C158.253 26.4261 157.589 25.5798 156.703 24.9287C155.818 24.2777 154.711 23.9521 153.383 23.9521C152.393 23.9521 151.482 24.1605 150.648 24.5771C149.828 24.9938 149.118 25.5928 148.52 26.374C147.934 27.1423 147.478 28.0602 147.152 29.1279C146.84 30.1826 146.684 31.3545 146.684 32.6436V33.4834C146.684 34.6553 146.853 35.749 147.191 36.7646C147.543 37.7673 148.038 38.6527 148.676 39.4209C149.327 40.1891 150.095 40.7881 150.98 41.2178C151.866 41.6475 152.842 41.8623 153.91 41.8623C155.16 41.8623 156.267 41.6344 157.23 41.1787C158.194 40.71 159.06 39.9743 159.828 38.9717L161.293 40.1045C160.837 40.7816 160.264 41.4066 159.574 41.9795C158.897 42.5524 158.083 43.0081 157.133 43.3467C156.182 43.6852 155.076 43.8545 153.812 43.8545ZM173.617 29.9092V31.9209H164.262V29.9092H173.617ZM177.797 13.4639H180.141V39.3623L179.984 43.4639H177.797V13.4639ZM194.848 32.7021V33.1123C194.848 34.6878 194.665 36.1331 194.301 37.4482C193.936 38.7633 193.409 39.9027 192.719 40.8662C192.029 41.8167 191.182 42.5524 190.18 43.0732C189.19 43.5941 188.051 43.8545 186.762 43.8545C185.499 43.8545 184.379 43.6592 183.402 43.2686C182.426 42.8649 181.592 42.2985 180.902 41.5693C180.212 40.8271 179.659 39.9613 179.242 38.9717C178.826 37.9691 178.533 36.8688 178.363 35.6709V30.4561C178.559 29.18 178.871 28.0212 179.301 26.9795C179.73 25.9378 180.284 25.0394 180.961 24.2842C181.651 23.529 182.471 22.9495 183.422 22.5459C184.385 22.1423 185.486 21.9404 186.723 21.9404C188.012 21.9404 189.158 22.1943 190.16 22.7021C191.176 23.1969 192.029 23.9196 192.719 24.8701C193.409 25.8076 193.936 26.9404 194.301 28.2686C194.665 29.5837 194.848 31.0615 194.848 32.7021ZM192.484 33.1123V32.7021C192.484 31.4652 192.367 30.3193 192.133 29.2646C191.898 28.21 191.527 27.292 191.02 26.5107C190.525 25.7165 189.887 25.098 189.105 24.6553C188.324 24.2126 187.387 23.9912 186.293 23.9912C185.173 23.9912 184.216 24.18 183.422 24.5576C182.641 24.9222 181.99 25.4105 181.469 26.0225C180.961 26.6214 180.557 27.279 180.258 27.9951C179.958 28.7113 179.737 29.4144 179.594 30.1045V36.1787C179.815 37.1553 180.199 38.0732 180.746 38.9326C181.293 39.792 182.029 40.4886 182.953 41.0225C183.878 41.5433 185.004 41.8037 186.332 41.8037C187.4 41.8037 188.318 41.5824 189.086 41.1396C189.867 40.6969 190.505 40.085 191 39.3037C191.508 38.5225 191.879 37.6045 192.113 36.5498C192.361 35.4951 192.484 34.3493 192.484 33.1123ZM198.734 33.2295V32.585C198.734 31.0485 198.956 29.6292 199.398 28.3271C199.841 27.0251 200.473 25.8988 201.293 24.9482C202.126 23.9977 203.122 23.262 204.281 22.7412C205.44 22.2074 206.729 21.9404 208.148 21.9404C209.581 21.9404 210.876 22.2074 212.035 22.7412C213.194 23.262 214.19 23.9977 215.023 24.9482C215.857 25.8988 216.495 27.0251 216.938 28.3271C217.38 29.6292 217.602 31.0485 217.602 32.585V33.2295C217.602 34.766 217.38 36.1852 216.938 37.4873C216.495 38.7764 215.857 39.8962 215.023 40.8467C214.203 41.7972 213.214 42.5394 212.055 43.0732C210.896 43.5941 209.607 43.8545 208.188 43.8545C206.755 43.8545 205.46 43.5941 204.301 43.0732C203.142 42.5394 202.146 41.7972 201.312 40.8467C200.479 39.8962 199.841 38.7764 199.398 37.4873C198.956 36.1852 198.734 34.766 198.734 33.2295ZM201.059 32.585V33.2295C201.059 34.3883 201.215 35.4886 201.527 36.5303C201.84 37.5589 202.296 38.4769 202.895 39.2842C203.493 40.0785 204.236 40.7035 205.121 41.1592C206.007 41.6149 207.029 41.8428 208.188 41.8428C209.333 41.8428 210.342 41.6149 211.215 41.1592C212.1 40.7035 212.842 40.0785 213.441 39.2842C214.04 38.4769 214.49 37.5589 214.789 36.5303C215.102 35.4886 215.258 34.3883 215.258 33.2295V32.585C215.258 31.4391 215.102 30.3519 214.789 29.3232C214.49 28.2946 214.034 27.3766 213.422 26.5693C212.823 25.762 212.081 25.124 211.195 24.6553C210.31 24.1865 209.294 23.9521 208.148 23.9521C207.003 23.9521 205.987 24.1865 205.102 24.6553C204.229 25.124 203.487 25.762 202.875 26.5693C202.276 27.3766 201.82 28.2946 201.508 29.3232C201.208 30.3519 201.059 31.4391 201.059 32.585ZM222.934 22.3311L228.637 30.8662L234.359 22.3311H237.133L229.965 32.6826L237.426 43.4639H234.691L228.656 34.5381L222.641 43.4639H219.906L227.367 32.6826L220.199 22.3311H222.934Z" fill="black"/>
<path d="M48.8729 46.6136V49.1366C48.8714 49.4442 48.8085 49.7485 48.6878 50.032C48.567 50.3155 48.3908 50.5728 48.1691 50.7889C47.9475 51.0051 47.6848 51.176 47.3962 51.2918C47.1075 51.4075 46.7986 51.4659 46.487 51.4636H3.38584C3.07429 51.4659 2.76534 51.4075 2.47669 51.2918C2.18804 51.176 1.92538 51.0051 1.70374 50.7889C1.4821 50.5728 1.30585 50.3155 1.18509 50.032C1.06433 49.7485 1.00143 49.4442 1 49.1366V21.9637C1 20.6746 2.06357 19.6367 3.38584 19.6367H21.7608M48.8729 33.5759V37.5258V33.5759ZM48.8729 24.4867H50.2143C50.6496 24.4867 51 24.8326 51 25.2624V32.8002C51.0002 32.9021 50.98 33.003 50.9406 33.0972C50.9011 33.1914 50.8433 33.277 50.7703 33.3491C50.6973 33.4211 50.6106 33.4783 50.5152 33.5172C50.4198 33.5561 50.3175 33.576 50.2143 33.5759H48.8729" fill="#D9D9D9"/>
<path d="M48.8729 46.6136V49.1366C48.8714 49.4442 48.8085 49.7485 48.6878 50.032C48.567 50.3155 48.3908 50.5728 48.1691 50.789C47.9475 51.0051 47.6848 51.176 47.3962 51.2918C47.1075 51.4075 46.7986 51.4659 46.487 51.4636H3.38584C3.07429 51.4659 2.76534 51.4075 2.47669 51.2918C2.18804 51.176 1.92538 51.0051 1.70374 50.789C1.4821 50.5728 1.30585 50.3155 1.18509 50.032C1.06433 49.7485 1.00143 49.4442 1 49.1366V21.9637C1 20.6746 2.06357 19.6367 3.38584 19.6367H21.7608M48.8729 37.5258V33.5759H50.2143C50.3175 33.576 50.4198 33.5561 50.5152 33.5172C50.6106 33.4783 50.6973 33.4211 50.7703 33.3491C50.8433 33.277 50.9011 33.1914 50.9406 33.0972C50.98 33.003 51.0002 32.9021 51 32.8002V25.2624C51 24.8326 50.6496 24.4867 50.2143 24.4867H48.8729" stroke="black" stroke-width="1.04167" stroke-linecap="round" stroke-linejoin="round"/>
<path d="M27.9437 19.6381H46.487C46.7985 19.6358 47.1075 19.6942 47.3961 19.81C47.6848 19.9258 47.9475 20.0966 48.1691 20.3128C48.3907 20.529 48.567 20.7862 48.6877 21.0698C48.8085 21.3533 48.8714 21.6576 48.8728 21.9652V24.4868M21.5787 10.5233H15.3451C14.9318 10.5246 14.5222 10.4451 14.1401 10.2894C13.758 10.1338 13.4108 9.90509 13.1186 9.61646C12.8263 9.32783 12.5948 8.98499 12.4373 8.60767C12.2799 8.23035 12.1995 7.82601 12.201 7.41791V4.56792C12.1997 4.15995 12.2802 3.75575 12.4377 3.37858C12.5953 3.00142 12.8268 2.65874 13.1191 2.37025C13.4113 2.08176 13.7584 1.85317 14.1404 1.69762C14.5225 1.54207 14.9319 1.46263 15.3451 1.46388H34.3579C34.7712 1.46263 35.1806 1.54207 35.5627 1.69762C35.9447 1.85317 36.2918 2.08176 36.584 2.37025C36.8762 2.65874 37.1078 3.00142 37.2653 3.37858C37.4229 3.75575 37.5034 4.15995 37.5021 4.56792V7.41926C37.5034 7.82724 37.4229 8.23144 37.2653 8.60861C37.1078 8.98577 36.8762 9.32845 36.584 9.61694C36.2918 9.90543 35.9447 10.134 35.5627 10.2896C35.1806 10.4451 34.7712 10.5246 34.3579 10.5233H28.1244M48.8728 37.5246H50.2143C50.6496 37.5246 51 37.8705 51 38.3002V45.838C51.0001 45.94 50.9799 46.0409 50.9405 46.1351C50.9011 46.2293 50.8432 46.3149 50.7702 46.3869C50.6972 46.459 50.6106 46.5161 50.5152 46.555C50.4198 46.594 50.3175 46.6139 50.2143 46.6137H48.8728M7.40191 24.0449H42.4709C42.9062 24.0449 43.2566 24.3908 43.2566 24.8219V46.2799C43.2568 46.3818 43.2366 46.4828 43.1972 46.577C43.1577 46.6712 43.0999 46.7567 43.0269 46.8288C42.9539 46.9009 42.8672 46.958 42.7718 46.9969C42.6764 47.0358 42.5741 47.0558 42.4709 47.0556H7.40191C7.29868 47.0558 7.19643 47.0358 7.10102 46.9969C7.00562 46.958 6.91893 46.9009 6.84594 46.8288C6.77294 46.7567 6.71507 46.6712 6.67565 46.577C6.63623 46.4828 6.61603 46.3818 6.61621 46.2799V24.8206C6.61621 24.3908 6.96663 24.0449 7.40191 24.0449Z" stroke="black" stroke-width="1.04167" stroke-linecap="round" stroke-linejoin="round"/>
<path d="M21.758 19.639C21.6403 19.312 21.581 18.9652 21.5801 18.5985V7.67828C21.5788 7.27041 21.6592 6.86632 21.8167 6.48925C21.9742 6.11217 22.2056 5.76955 22.4977 5.48108C22.7898 5.19261 23.1367 4.96399 23.5186 4.80836C23.9005 4.65273 24.3097 4.57316 24.7229 4.57423H24.9802C25.3935 4.57298 25.8029 4.65242 26.1849 4.80797C26.567 4.96352 26.9141 5.19211 27.2063 5.4806C27.4985 5.76909 27.7301 6.11177 27.8876 6.48893C28.0452 6.8661 28.1257 7.2703 28.1244 7.67828V18.5985C28.1226 18.9652 28.0628 19.312 27.9451 19.639M21.7608 19.6377H27.9423H21.7608Z" fill="#D9D9D9"/>
<path d="M21.758 19.639C21.6403 19.312 21.581 18.9652 21.5801 18.5985V7.67828C21.5788 7.27041 21.6592 6.86632 21.8167 6.48925C21.9742 6.11217 22.2056 5.76955 22.4977 5.48108C22.7898 5.19261 23.1367 4.96399 23.5186 4.80836C23.9005 4.65273 24.3097 4.57316 24.7229 4.57423H24.9802C25.3935 4.57298 25.8029 4.65242 26.1849 4.80797C26.567 4.96352 26.9141 5.19211 27.2063 5.4806C27.4985 5.76909 27.7301 6.11177 27.8876 6.48893C28.0452 6.8661 28.1257 7.2703 28.1244 7.67828V18.5985C28.1226 18.9652 28.0628 19.312 27.9451 19.639M21.7608 19.6377H27.9423" stroke="black" stroke-width="1.04167" stroke-linecap="round" stroke-linejoin="round"/>
<path d="M40.3725 34.8154H36.6908L31.133 29.3286C30.9431 29.1395 30.7169 28.9896 30.4678 28.8876C30.2186 28.7856 29.9514 28.7335 29.6817 28.7344H15.2565C14.9193 28.735 14.5874 28.8176 14.2901 28.9749C13.9929 29.1323 13.7395 29.3594 13.5523 29.6364L9.74618 35.2665C9.63434 35.4333 9.57455 35.6289 9.57422 35.829V41.91C9.57422 42.4476 9.79054 42.9632 10.1756 43.3433C10.5606 43.7235 11.0829 43.937 11.6274 43.937H13.809C14.0351 44.8091 14.5489 45.582 15.2691 46.134C15.9894 46.6859 16.8753 46.9855 17.7871 46.9855C18.6989 46.9855 19.5848 46.6859 20.3051 46.134C21.0253 45.582 21.539 44.8091 21.7652 43.937H30.2347C30.4609 44.8091 30.9746 45.582 31.6949 46.134C32.4152 46.6859 33.301 46.9855 34.2129 46.9855C35.1247 46.9855 36.0105 46.6859 36.7308 46.134C37.4511 45.582 37.9648 44.8091 38.191 43.937H40.3725C40.9171 43.937 41.4393 43.7235 41.8244 43.3433C42.2094 42.9632 42.4257 42.4476 42.4257 41.91V36.8425C42.4257 36.3049 42.2094 35.7893 41.8244 35.4091C41.4393 35.029 40.9171 34.8154 40.3725 34.8154ZM15.2565 30.7614H29.6817L33.7881 34.8154H12.5257L15.2565 30.7614ZM17.7871 44.9505C17.381 44.9505 16.984 44.8317 16.6464 44.6089C16.3087 44.3862 16.0456 44.0696 15.8902 43.6992C15.7348 43.3288 15.6941 42.9213 15.7733 42.5281C15.8526 42.1349 16.0481 41.7737 16.3353 41.4902C16.6224 41.2067 16.9882 41.0137 17.3865 40.9355C17.7848 40.8572 18.1977 40.8974 18.5728 41.0508C18.948 41.2042 19.2687 41.464 19.4943 41.7974C19.7199 42.1307 19.8403 42.5226 19.8403 42.9235C19.8403 43.4611 19.624 43.9767 19.2389 44.3568C18.8539 44.737 18.3316 44.9505 17.7871 44.9505ZM34.2129 44.9505C33.8068 44.9505 33.4098 44.8317 33.0721 44.6089C32.7345 44.3862 32.4713 44.0696 32.3159 43.6992C32.1605 43.3288 32.1199 42.9213 32.1991 42.5281C32.2783 42.1349 32.4739 41.7737 32.761 41.4902C33.0482 41.2067 33.414 41.0137 33.8123 40.9355C34.2106 40.8572 34.6234 40.8974 34.9986 41.0508C35.3738 41.2042 35.6944 41.464 35.92 41.7974C36.1457 42.1307 36.2661 42.5226 36.2661 42.9235C36.2661 43.4611 36.0497 43.9767 35.6647 44.3568C35.2796 44.737 34.7574 44.9505 34.2129 44.9505Z" fill="#458EF7"/>
</svg>
