<svg width="51" height="50" viewBox="0 0 51 50" fill="none" xmlns="http://www.w3.org/2000/svg">
<path fill-rule="evenodd" clip-rule="evenodd" d="M10.5 20.625C11.163 20.625 11.7989 20.3616 12.2678 19.8928C12.7366 19.4239 13 18.788 13 18.125C13 17.462 12.7366 16.8261 12.2678 16.3572C11.7989 15.8884 11.163 15.625 10.5 15.625C9.83696 15.625 9.20107 15.8884 8.73223 16.3572C8.26339 16.8261 8 17.462 8 18.125C8 18.788 8.26339 19.4239 8.73223 19.8928C9.20107 20.3616 9.83696 20.625 10.5 20.625ZM10.5 25.625C12.4891 25.625 14.3968 24.8348 15.8033 23.4283C17.2098 22.0218 18 20.1141 18 18.125C18 16.1359 17.2098 14.2282 15.8033 12.8217C14.3968 11.4152 12.4891 10.625 10.5 10.625C8.51088 10.625 6.60322 11.4152 5.1967 12.8217C3.79018 14.2282 3 16.1359 3 18.125C3 20.1141 3.79018 22.0218 5.1967 23.4283C6.60322 24.8348 8.51088 25.625 10.5 25.625Z" fill="#458EF7"/>
<path fill-rule="evenodd" clip-rule="evenodd" d="M10.625 27.5C9.63044 27.5 8.67661 27.8951 7.97335 28.5983C7.27009 29.3016 6.875 30.2554 6.875 31.25V35C6.875 35.663 6.61161 36.2989 6.14277 36.7678C5.67393 37.2366 5.03804 37.5 4.375 37.5C3.71196 37.5 3.07607 37.2366 2.60723 36.7678C2.13839 36.2989 1.875 35.663 1.875 35V31.25C1.875 28.9294 2.79687 26.7038 4.43782 25.0628C6.07876 23.4219 8.30436 22.5 10.625 22.5C12.9456 22.5 15.1712 23.4219 16.8122 25.0628C18.4531 26.7038 19.375 28.9294 19.375 31.25V35C19.375 35.663 19.1116 36.2989 18.6428 36.7678C18.1739 37.2366 17.538 37.5 16.875 37.5C16.212 37.5 15.5761 37.2366 15.1072 36.7678C14.6384 36.2989 14.375 35.663 14.375 35V31.25C14.375 30.2554 13.9799 29.3016 13.2766 28.5983C12.5734 27.8951 11.6196 27.5 10.625 27.5ZM40.5 20.625C39.837 20.625 39.2011 20.3616 38.7322 19.8928C38.2634 19.4239 38 18.788 38 18.125C38 17.462 38.2634 16.8261 38.7322 16.3572C39.2011 15.8884 39.837 15.625 40.5 15.625C41.163 15.625 41.7989 15.8884 42.2678 16.3572C42.7366 16.8261 43 17.462 43 18.125C43 18.788 42.7366 19.4239 42.2678 19.8928C41.7989 20.3616 41.163 20.625 40.5 20.625ZM40.5 25.625C38.5109 25.625 36.6032 24.8348 35.1967 23.4283C33.7902 22.0218 33 20.1141 33 18.125C33 16.1359 33.7902 14.2282 35.1967 12.8217C36.6032 11.4152 38.5109 10.625 40.5 10.625C42.4891 10.625 44.3968 11.4152 45.8033 12.8217C47.2098 14.2282 48 16.1359 48 18.125C48 20.1141 47.2098 22.0218 45.8033 23.4283C44.3968 24.8348 42.4891 25.625 40.5 25.625Z" fill="#458EF7"/>
<path fill-rule="evenodd" clip-rule="evenodd" d="M40.375 27.5C41.3696 27.5 42.3234 27.8951 43.0267 28.5983C43.7299 29.3016 44.125 30.2554 44.125 31.25V35C44.125 35.663 44.3884 36.2989 44.8572 36.7678C45.3261 37.2366 45.962 37.5 46.625 37.5C47.288 37.5 47.9239 37.2366 48.3928 36.7678C48.8616 36.2989 49.125 35.663 49.125 35V31.25C49.125 28.9294 48.2031 26.7038 46.5622 25.0628C44.9212 23.4219 42.6956 22.5 40.375 22.5C38.0544 22.5 35.8288 23.4219 34.1878 25.0628C32.5469 26.7038 31.625 28.9294 31.625 31.25V35C31.625 35.663 31.8884 36.2989 32.3572 36.7678C32.8261 37.2366 33.462 37.5 34.125 37.5C34.788 37.5 35.4239 37.2366 35.8928 36.7678C36.3616 36.2989 36.625 35.663 36.625 35V31.25C36.625 30.2554 37.0201 29.3016 37.7233 28.5983C38.4266 27.8951 39.3804 27.5 40.375 27.5Z" fill="#458EF7"/>
<path fill-rule="evenodd" clip-rule="evenodd" d="M25.625 34.375C23.9674 34.375 22.3777 35.0335 21.2056 36.2056C20.0335 37.3777 19.375 38.9674 19.375 40.625V44.375C19.375 45.038 19.1116 45.6739 18.6428 46.1428C18.1739 46.6116 17.538 46.875 16.875 46.875C16.212 46.875 15.5761 46.6116 15.1072 46.1428C14.6384 45.6739 14.375 45.038 14.375 44.375V40.625C14.375 37.6413 15.5603 34.7798 17.67 32.67C19.7798 30.5603 22.6413 29.375 25.625 29.375C28.6087 29.375 31.4702 30.5603 33.58 32.67C35.6897 34.7798 36.875 37.6413 36.875 40.625V44.375C36.875 45.038 36.6116 45.6739 36.1428 46.1428C35.6739 46.6116 35.038 46.875 34.375 46.875C33.712 46.875 33.0761 46.6116 32.6072 46.1428C32.1384 45.6739 31.875 45.038 31.875 44.375V40.625C31.875 38.9674 31.2165 37.3777 30.0444 36.2056C28.8723 35.0335 27.2826 34.375 25.625 34.375Z" fill="#458EF7"/>
<path fill-rule="evenodd" clip-rule="evenodd" d="M25.5 27.5C26.163 27.5 26.7989 27.2366 27.2678 26.7678C27.7366 26.2989 28 25.663 28 25C28 24.337 27.7366 23.7011 27.2678 23.2322C26.7989 22.7634 26.163 22.5 25.5 22.5C24.837 22.5 24.2011 22.7634 23.7322 23.2322C23.2634 23.7011 23 24.337 23 25C23 25.663 23.2634 26.2989 23.7322 26.7678C24.2011 27.2366 24.837 27.5 25.5 27.5ZM25.5 32.5C27.4891 32.5 29.3968 31.7098 30.8033 30.3033C32.2098 28.8968 33 26.9891 33 25C33 23.0109 32.2098 21.1032 30.8033 19.6967C29.3968 18.2902 27.4891 17.5 25.5 17.5C23.5109 17.5 21.6032 18.2902 20.1967 19.6967C18.7902 21.1032 18 23.0109 18 25C18 26.9891 18.7902 28.8968 20.1967 30.3033C21.6032 31.7098 23.5109 32.5 25.5 32.5Z" fill="#458EF7"/>
</svg>
