<svg width="50" height="29" viewBox="0 0 50 29" fill="none" xmlns="http://www.w3.org/2000/svg">
<path d="M46.875 9.87502H41.2715L32.8125 1.41603C32.5234 1.12459 32.1792 0.893519 31.8 0.736265C31.4207 0.57901 31.014 0.498704 30.6035 0.500016H8.64844C8.13514 0.500966 7.62999 0.628339 7.17761 0.870879C6.72523 1.11342 6.33956 1.46366 6.05469 1.89064L0.261719 10.5703C0.0915076 10.8276 0.000509488 11.1291 0 11.4375L0 20.8125C0 21.6413 0.32924 22.4362 0.915291 23.0222C1.50134 23.6083 2.2962 23.9375 3.125 23.9375H6.44531C6.78953 25.2819 7.57141 26.4735 8.66767 27.3245C9.76394 28.1754 11.1122 28.6373 12.5 28.6373C13.8878 28.6373 15.2361 28.1754 16.3323 27.3245C17.4286 26.4735 18.2105 25.2819 18.5547 23.9375H31.4453C31.7895 25.2819 32.5714 26.4735 33.6677 27.3245C34.7639 28.1754 36.1122 28.6373 37.5 28.6373C38.8878 28.6373 40.2361 28.1754 41.3323 27.3245C42.4286 26.4735 43.2105 25.2819 43.5547 23.9375H46.875C47.7038 23.9375 48.4987 23.6083 49.0847 23.0222C49.6708 22.4362 50 21.6413 50 20.8125V13C50 12.1712 49.6708 11.3764 49.0847 10.7903C48.4987 10.2043 47.7038 9.87502 46.875 9.87502ZM8.64844 3.62502H30.6035L36.8535 9.87502H4.49219L8.64844 3.62502ZM12.5 25.5C11.8819 25.5 11.2777 25.3167 10.7638 24.9734C10.2499 24.63 9.8494 24.1419 9.61288 23.5709C9.37635 22.9999 9.31447 22.3715 9.43505 21.7654C9.55562 21.1592 9.85325 20.6023 10.2903 20.1653C10.7273 19.7283 11.2842 19.4306 11.8903 19.3101C12.4965 19.1895 13.1249 19.2514 13.6959 19.4879C14.2669 19.7244 14.755 20.125 15.0983 20.6389C15.4417 21.1528 15.625 21.757 15.625 22.375C15.625 23.2038 15.2958 23.9987 14.7097 24.5847C14.1237 25.1708 13.3288 25.5 12.5 25.5ZM37.5 25.5C36.8819 25.5 36.2777 25.3167 35.7638 24.9734C35.2499 24.63 34.8494 24.1419 34.6129 23.5709C34.3764 22.9999 34.3145 22.3715 34.435 21.7654C34.5556 21.1592 34.8533 20.6023 35.2903 20.1653C35.7273 19.7283 36.2842 19.4306 36.8903 19.3101C37.4965 19.1895 38.1249 19.2514 38.6959 19.4879C39.2669 19.7244 39.755 20.125 40.0983 20.6389C40.4417 21.1528 40.625 21.757 40.625 22.375C40.625 23.2038 40.2958 23.9987 39.7097 24.5847C39.1237 25.1708 38.3288 25.5 37.5 25.5Z" fill="#458EF7"/>
</svg>
